<svg xmlns="http://www.w3.org/2000/svg" xmlns:xlink="http://www.w3.org/1999/xlink" width="202.362" height="215.776" viewBox="0 0 202.362 215.776">
  <defs>
    <linearGradient id="linear-gradient" x1="0.521" y1="-0.103" x2="0.5" y2="1" gradientUnits="objectBoundingBox">
      <stop offset="0" stop-color="#673391"/>
      <stop offset="1" stop-color="#b22382"/>
    </linearGradient>
  </defs>
  <g id="_11-banking" data-name="11-banking" transform="translate(-33 -2.5)">
    <path id="Path_71383" data-name="Path 71383" d="M204.252,156.774l-80.486-40.243a5.03,5.03,0,0,0-4.5,0L38.781,156.774a5.03,5.03,0,0,0-2.781,4.5v13.414a5.03,5.03,0,0,0,5.03,5.03h8.384v70.425H41.03a5.03,5.03,0,0,0-5.03,5.03V275.3a5.03,5.03,0,0,0,5.03,5.03H202a5.03,5.03,0,0,0,5.03-5.03V255.174a5.03,5.03,0,0,0-5.03-5.03h-8.384V179.718H202a5.03,5.03,0,0,0,5.03-5.03V161.273a5.03,5.03,0,0,0-2.781-4.5ZM59.475,179.718h3.354v70.425H59.475Zm23.475,0v70.425H72.889V179.718Zm53.657,0v70.425H106.425V179.718Zm33.536,0v70.425H160.083V179.718Zm-20.122,70.425h-3.354V179.718h3.354Zm-53.657,0H93.011V179.718h3.354Zm100.608,20.122H46.061V260.2H196.972Zm-13.414-20.122H180.2V179.718h3.354Zm13.414-80.486H46.061v-5.275l75.456-37.728,75.456,37.728Z" transform="translate(0 -65.05)" stroke="#fff" stroke-width="6" fill="url(#linear-gradient)"/>
    <ellipse id="Ellipse_2" data-name="Ellipse 2" cx="5.5" cy="5" rx="5.5" ry="5" transform="translate(116 78.276)" fill="#5d235e"/>
    <path id="Path_71384" data-name="Path 71384" d="M360.122,125.152a5.03,5.03,0,1,0,10.061,0A25.18,25.18,0,0,0,345.03,100a5.03,5.03,0,1,0,0,10.061,15.108,15.108,0,0,1,15.091,15.091Z" transform="translate(-176.564 -55.757)" fill="#d9cee1" stroke="#fff" stroke-width="3"/>
    <path id="Path_71385" data-name="Path 71385" d="M345.03,52a5.03,5.03,0,1,0,0,10.061,35.255,35.255,0,0,1,35.213,35.213,5.03,5.03,0,1,0,10.061,0A45.325,45.325,0,0,0,345.03,52Z" transform="translate(-176.564 -27.878)" fill="#d9cee1" stroke="#fff" stroke-width="3"/>
    <path id="Path_71386" data-name="Path 71386" d="M345.03,4a5.03,5.03,0,1,0,0,10.061,55.4,55.4,0,0,1,55.334,55.334,5.03,5.03,0,1,0,10.061,0A65.469,65.469,0,0,0,345.03,4Z" transform="translate(-176.564)" fill="#d9cee1" stroke="#fff" stroke-width="3"/>
  </g>
</svg>
