<svg width="42" height="42" viewBox="0 0 42 42" fill="none" xmlns="http://www.w3.org/2000/svg">
<g clip-path="url(#clip0_2390_3865)">
<path d="M16.27 22.893H2.36201C1.83503 22.893 1.32962 22.6837 0.956985 22.311C0.584351 21.9384 0.375 21.433 0.375 20.906V2.36102C0.375 1.83404 0.584351 1.32863 0.956985 0.955994C1.32962 0.583359 1.83503 0.374023 2.36201 0.374023H20.907C21.4331 0.375347 21.9372 0.585272 22.3088 0.957764C22.6803 1.33026 22.889 1.8349 22.889 2.36102V16.271" stroke="white" stroke-width="0.75" stroke-linecap="round" stroke-linejoin="round"/>
<path d="M34.1529 18.9199H39.4529C39.9799 18.9199 40.4853 19.1293 40.8579 19.5019C41.2306 19.8745 41.4399 20.3799 41.4399 20.9069V39.4519C41.4399 39.9789 41.2306 40.4843 40.8579 40.8569C40.4853 41.2296 39.9799 41.4389 39.4529 41.4389H20.9079C20.3809 41.4389 19.8755 41.2296 19.5029 40.8569C19.1302 40.4843 18.9209 39.9789 18.9209 39.4519V20.9069C18.9209 20.3803 19.13 19.8752 19.5022 19.5026C19.8744 19.13 20.3793 18.9205 20.9059 18.9199H31.5059" stroke="white" stroke-width="0.75" stroke-linecap="round" stroke-linejoin="round"/>
<path d="M25.4731 36.1398L29.9501 24.3858C29.9704 24.3361 30.005 24.2936 30.0495 24.2637C30.0941 24.2338 30.1465 24.2178 30.2001 24.2178C30.2538 24.2178 30.3062 24.2338 30.3508 24.2637C30.3953 24.2936 30.4299 24.3361 30.4501 24.3858L34.8861 36.1398" stroke="white" stroke-width="0.75" stroke-linecap="round" stroke-linejoin="round"/>
<path d="M26.8691 33.2129H33.5121" stroke="white" stroke-width="0.75" stroke-linecap="round" stroke-linejoin="round"/>
<path d="M14.9461 34.153H12.2971C11.0676 34.153 9.8884 33.6645 9.01898 32.7951C8.14956 31.9257 7.66113 30.7465 7.66113 29.517V25.543" stroke="white" stroke-width="0.75" stroke-linecap="round" stroke-linejoin="round"/>
<path d="M13.6211 32.166L16.2701 34.153L13.6211 36.14" stroke="white" stroke-width="0.75" stroke-linecap="round" stroke-linejoin="round"/>
<path d="M26.8672 7.66016H29.5162C30.1251 7.66003 30.728 7.77984 31.2906 8.01276C31.8532 8.24569 32.3644 8.58715 32.795 9.01766C33.2256 9.44816 33.5672 9.95927 33.8002 10.5218C34.0332 11.0843 34.1532 11.6873 34.1532 12.2962V16.2702" stroke="white" stroke-width="0.75" stroke-linecap="round" stroke-linejoin="round"/>
<path d="M28.1949 9.64685L25.5459 7.65985L28.1949 5.67285" stroke="white" stroke-width="0.75" stroke-linecap="round" stroke-linejoin="round"/>
<path d="M12.5049 12.136C12.5049 13.606 11.4249 14.446 9.95488 14.446C8.16988 14.446 6.96988 13.396 5.81488 10.216L6.87988 9.78098C7.68988 12.121 8.54488 13.351 9.84988 13.351C10.7349 13.351 11.3199 12.856 11.3199 12.001C11.3199 11.311 10.8549 10.771 10.2699 10.351C9.89488 10.456 9.44488 10.531 8.93488 10.576L8.69488 9.51098C10.5699 9.27098 11.0649 8.86598 11.0649 8.04098C11.0649 7.38098 10.6299 6.96098 9.81988 6.96098C9.14488 6.96098 8.49988 7.17098 7.85488 7.56098L7.46488 6.51098C8.15488 6.12098 8.93488 5.89598 9.86488 5.89598C11.5749 5.89598 12.2649 6.90098 12.2649 8.05598C12.2649 8.83598 11.9799 9.46598 11.3049 9.90098L11.3349 9.93098C11.8149 10.051 12.3399 10.096 12.8049 10.096C13.2699 10.096 13.7649 10.051 14.2899 9.91598V7.11098H13.1949V6.04598H17.0649V7.11098H15.5049V15.376H14.2899V11.026C13.8849 11.131 13.4649 11.161 13.0449 11.161C12.8049 11.161 12.5199 11.146 12.2349 11.101C12.4149 11.416 12.5049 11.776 12.5049 12.136Z" fill="white"/>
</g>
<defs>
<clipPath id="clip0_2390_3865">
<rect width="41.814" height="41.814" fill="white"/>
</clipPath>
</defs>
</svg>
