<?xml version="1.0" encoding="UTF-8"?>
<svg id="Layer_1" data-name="Layer 1" xmlns="http://www.w3.org/2000/svg" viewBox="0 0 256 256">
  <defs>
    <style>
      .cls-1 {
        fill: #2e2c76;
        stroke: #000;
        stroke-miterlimit: 22.93;
        stroke-width: .39px;
      }

      .cls-1, .cls-2 {
        fill-rule: evenodd;
      }

      .cls-2 {
        fill: #22b3e8;
      }
    </style>
  </defs>
  <path class="cls-2" d="M97.55,127.64c0-18.55-15.04-33.58-33.58-33.58s-33.58,15.04-33.58,33.58,13.77,32.46,31.33,33.58v-25.99c-3.23-.98-5.62-3.93-5.62-7.59,0-4.22,3.51-7.73,7.87-7.73s7.87,3.51,7.87,7.73c0,3.65-2.39,6.6-5.76,7.59v25.99c17.56-1.12,31.47-15.74,31.47-33.58h0Z"/>
  <path class="cls-1" d="M145.14,113.64c2.04-4.07,4.07-8.14,6.11-12.21-11.56-10.81-33.52-10.33-40.68,5.14-1.91,4.12-1.84,8.69-.02,13.5,.88,2.32,2.46,5.21,4.97,7.28,1.28,1.06,6.21,3.5,10.2,5.31,3.73,1.69,8.86,2.9,11.22,6.23,2.69,3.81,1.03,8.51-5.22,9.36-3.5,.48-8.71-.98-16.47-7.24-2.74,3.58-5.47,7.16-8.21,10.74,26.11,22.77,50.22,2.83,44.57-14.89-1.43-4.5-4.39-7.96-8.04-10.6-5.66-4.08-11.56-5.19-15.5-6.91-7.39-3.22-6.34-12.28,3.9-11.73,6.48,.35,8.56,2.2,13.19,6.02h0Z"/>
  <path class="cls-1" d="M158.37,94.03h25.32c8.51,0,18.49,7.4,18.49,16.23,0,2.04,.14,3.57,0,5.94-.28,4.69-4.6,9.94-7.39,9.94,4.34,0,8.67,6.21,9.73,10.51,2.58,10.44-2.9,25.31-20.84,25.31h-25.32V94.03h0Zm13.58,12.4h9.95c3.73,0,6.79,3.17,6.79,7.04v1.01c0,3.32-2.62,6.03-5.82,6.03h-4.11v12.56h4.79c4.33,0,7.87,3.67,7.87,8.16h0c0,4.49-3.54,8.16-7.87,8.16h-11.61v-42.98h0Z"/>
  <polygon class="cls-1" points="211.3 94.03 225.61 94.03 225.61 161.97 211.3 161.97 211.3 94.03 211.3 94.03"/>
</svg>