<svg width="30" height="14" viewBox="0 0 30 14" fill="none" xmlns="http://www.w3.org/2000/svg">
<mask id="mask0_1478_6771" style="mask-type:luminance" maskUnits="userSpaceOnUse" x="0" y="0" width="30" height="14">
<path d="M29.0422 0.421875H0.951172V13.2929H29.0422V0.421875Z" fill="white"/>
</mask>
<g mask="url(#mask0_1478_6771)">
<path d="M17.552 5.30708C17.0136 4.90843 16.4196 4.59104 15.789 4.36508C14.981 4.03108 14.284 3.74308 14.284 3.20908C14.2854 3.09205 14.3139 2.97695 14.3674 2.87283C14.4208 2.76871 14.4977 2.67843 14.592 2.60908C14.831 2.43637 15.1203 2.34743 15.415 2.35608C16.0851 2.39094 16.7253 2.64417 17.238 3.07708L17.438 3.25608L18.338 1.57808L18.238 1.47008C17.4725 0.780096 16.4678 0.416263 15.438 0.45608C14.612 0.434309 13.8057 0.710861 13.167 1.23508C12.8764 1.48083 12.6431 1.78721 12.4834 2.13272C12.3238 2.47823 12.2417 2.85448 12.243 3.23508C12.2377 3.59409 12.3163 3.94937 12.4726 4.27263C12.6288 4.59589 12.8584 4.87821 13.143 5.09708C13.6763 5.49597 14.2635 5.81717 14.887 6.05108C15.718 6.40908 16.436 6.71908 16.436 7.27008C16.436 7.68908 16.152 8.13808 15.355 8.13808C14.5857 8.08894 13.8562 7.77887 13.287 7.25908L13.115 7.09208L12 8.63508L12.111 8.75908C12.3589 9.01319 12.6418 9.23071 12.951 9.40508C13.6727 9.82353 14.4928 10.0424 15.327 10.0391C16.1719 10.0719 16.9965 9.77541 17.627 9.21208C17.8937 8.95712 18.1052 8.65007 18.2483 8.30999C18.3914 7.9699 18.4632 7.60403 18.459 7.23508C18.4686 6.86564 18.3917 6.49907 18.2344 6.16465C18.0771 5.83024 17.8437 5.53724 17.553 5.30908" fill="#080071"/>
<path d="M29.042 0.585938H26.957V9.89594H29.042V0.585938Z" fill="#080071"/>
<path d="M25.6492 5.71479C25.4465 5.39428 25.1616 5.13392 24.8242 4.96079C25.0982 4.73443 25.3171 4.44871 25.4644 4.12525C25.6116 3.80179 25.6834 3.44907 25.6742 3.09379C25.6859 2.73887 25.6152 2.38606 25.4677 2.06302C25.3203 1.73998 25.1 1.45547 24.8242 1.23179C24.216 0.784333 23.4735 0.55753 22.7192 0.588785H19.3262V9.89879H22.7572C23.5678 9.92891 24.3663 9.69559 25.0332 9.23379C25.3583 8.98551 25.6189 8.66263 25.793 8.29242C25.967 7.92221 26.0494 7.51555 26.0332 7.10679C26.0389 6.61608 25.9047 6.13391 25.6462 5.71679M22.8782 8.15779H21.2892V2.33179H22.6892C22.8204 2.31634 22.9533 2.33039 23.0784 2.3729C23.2034 2.41541 23.3174 2.48531 23.412 2.5775C23.5066 2.66969 23.5794 2.78185 23.6251 2.90577C23.6708 3.02969 23.6883 3.16226 23.6762 3.29378C23.692 3.42256 23.6776 3.55324 23.6344 3.67555C23.5911 3.79786 23.5201 3.90847 23.4269 3.99869C23.3336 4.08892 23.2208 4.15629 23.0971 4.19552C22.9734 4.23475 22.8424 4.24477 22.7142 4.22479H22.2322V5.93779H22.8772C23.0329 5.93057 23.1885 5.95513 23.3345 6.00997C23.4804 6.06481 23.6137 6.14879 23.7262 6.25679C23.8266 6.35307 23.9054 6.4697 23.9571 6.59887C24.0088 6.72804 24.0324 6.86678 24.0262 7.00578C24.0389 7.16003 24.0179 7.31519 23.9646 7.46048C23.9113 7.60578 23.827 7.73773 23.7176 7.84717C23.6081 7.9566 23.4762 8.0409 23.3309 8.09419C23.1856 8.14749 23.0304 8.1685 22.8762 8.15579" fill="#080071"/>
<path d="M5.76411 0.421875C4.5285 0.423964 3.34078 0.900006 2.44576 1.75188C1.55074 2.60375 1.01665 3.76652 0.953564 5.00052C0.890479 6.23453 1.30321 7.44571 2.10669 8.38441C2.91017 9.32311 4.04316 9.91779 5.27211 10.0459V6.54588C4.96911 6.43069 4.71606 6.21294 4.55698 5.9305C4.39791 5.64805 4.34286 5.31879 4.40141 4.99996C4.45997 4.68113 4.62843 4.39292 4.87749 4.18543C5.12655 3.97795 5.44045 3.86433 5.76461 3.86433C6.08877 3.86433 6.40268 3.97795 6.65174 4.18543C6.9008 4.39292 7.06926 4.68113 7.12781 4.99996C7.18637 5.31879 7.13132 5.64805 6.97224 5.9305C6.81316 6.21294 6.56012 6.43069 6.25711 6.54588V10.0459C7.48615 9.91778 8.6192 9.32302 9.42269 8.38421C10.2262 7.44541 10.6388 6.23411 10.5756 5.00003C10.5124 3.76595 9.97812 2.60316 9.08291 1.75137C8.1877 0.899576 6.99981 0.423712 5.76411 0.421875Z" fill="#0094D7"/>
<path d="M6.41766 11.6549H5.97266V11.4979H7.04766V11.6549H6.59766V12.8769H6.41766V11.6549ZM7.37666 11.4219V12.0219C7.40747 11.9668 7.45316 11.9214 7.5085 11.891C7.56384 11.8606 7.62661 11.8463 7.68966 11.8499C7.85066 11.8499 8.02766 11.9379 8.02766 12.2369V12.8779H7.85466V12.2659C7.85466 12.0949 7.78266 11.9999 7.63566 11.9999C7.45466 11.9999 7.37466 12.1189 7.37466 12.3289V12.8779H7.20166V11.4219H7.37666ZM8.42866 12.4059C8.42866 12.6059 8.52866 12.7549 8.70366 12.7549C8.75557 12.7602 8.80775 12.7477 8.8517 12.7196C8.89564 12.6914 8.92876 12.6492 8.94566 12.5999H9.11766C9.09289 12.691 9.03729 12.7707 8.96034 12.8254C8.88339 12.8801 8.78984 12.9064 8.69566 12.8999C8.63135 12.899 8.56795 12.8845 8.50964 12.8574C8.45134 12.8303 8.39945 12.7911 8.3574 12.7424C8.31535 12.6937 8.28409 12.6367 8.26569 12.5751C8.24729 12.5135 8.24217 12.4486 8.25066 12.3849C8.25066 12.0849 8.40066 11.8479 8.70666 11.8479C8.76717 11.8471 8.82715 11.8592 8.88264 11.8833C8.93813 11.9074 8.98785 11.9431 9.02851 11.9879C9.06917 12.0328 9.09984 12.0857 9.11848 12.1433C9.13713 12.2009 9.14332 12.2617 9.13666 12.3219C9.13666 12.3529 9.13666 12.3779 9.13666 12.4049L8.42866 12.4059ZM8.96366 12.2839C8.96366 12.1189 8.87866 11.9839 8.70666 11.9839C8.53466 11.9839 8.45266 12.1069 8.43466 12.2839H8.96366ZM9.85566 11.4229H10.0287V12.0119C10.06 11.956 10.107 11.9104 10.1638 11.8807C10.2206 11.8511 10.2849 11.8386 10.3487 11.8449C10.6007 11.8449 10.7597 12.0529 10.7597 12.3509C10.7597 12.6489 10.6067 12.8969 10.3227 12.8969C10.2627 12.9051 10.2016 12.8945 10.1479 12.8665C10.0942 12.8386 10.0504 12.7947 10.0227 12.7409C10.0227 12.7853 10.0204 12.8297 10.0157 12.8739H9.84866C9.84866 12.7619 9.84866 12.6489 9.84866 12.5369L9.85566 11.4229ZM10.5817 12.3579C10.5817 12.1409 10.4817 11.9959 10.3087 11.9959C10.0957 11.9959 10.0197 12.1389 10.0197 12.3779C10.0197 12.5869 10.0867 12.7539 10.2997 12.7539C10.4777 12.7539 10.5817 12.6019 10.5817 12.3539M11.7337 12.6539C11.7331 12.7271 11.7378 12.8003 11.7477 12.8729H11.5777C11.5671 12.83 11.5618 12.786 11.5617 12.7419C11.5309 12.7953 11.4851 12.8385 11.43 12.866C11.3749 12.8936 11.3128 12.9043 11.2517 12.8969C11.2086 12.9024 11.1649 12.8985 11.1234 12.8855C11.082 12.8724 11.0439 12.8506 11.0118 12.8214C10.9797 12.7922 10.9543 12.7564 10.9373 12.7164C10.9204 12.6764 10.9123 12.6333 10.9137 12.5899C10.9137 12.3659 11.0897 12.2629 11.3887 12.2629H11.5597V12.1769C11.5597 12.0879 11.5317 11.9769 11.3437 11.9769C11.1757 11.9769 11.1437 12.0599 11.1297 12.1389H10.9617C10.9747 12.0009 11.0617 11.8389 11.3497 11.8389C11.5947 11.8389 11.7307 11.9389 11.7307 12.1679L11.7337 12.6539ZM11.5647 12.4159V12.3839H11.3977C11.1977 12.3839 11.0907 12.4389 11.0907 12.5839C11.0899 12.6095 11.0946 12.635 11.1047 12.6586C11.1147 12.6823 11.1298 12.7034 11.1488 12.7206C11.1678 12.7378 11.1904 12.7507 11.2149 12.7584C11.2394 12.766 11.2652 12.7682 11.2907 12.7649C11.5327 12.7649 11.5647 12.6019 11.5647 12.4199M12.0347 12.1259C12.0347 12.0389 12.0347 11.9509 12.0347 11.8729H12.2037C12.2037 11.9029 12.2107 12.0079 12.2107 12.0379C12.237 11.9773 12.2816 11.9265 12.3383 11.8926C12.395 11.8587 12.4608 11.8434 12.5267 11.8489C12.7147 11.8489 12.8627 11.9639 12.8627 12.2309V12.8769H12.6897V12.2529C12.6897 12.1009 12.6307 11.9989 12.4767 11.9989C12.2877 11.9989 12.2107 12.1429 12.2107 12.3449V12.8769H12.0377L12.0347 12.1259ZM13.3297 12.3519C13.4147 12.2519 13.6347 12.0209 13.7707 11.8719H13.9777L13.5997 12.2629L14.0207 12.8759H13.8207L13.4827 12.3759L13.3317 12.5219V12.8779H13.1587V11.4219H13.3317L13.3297 12.3519ZM14.2407 12.4059C14.2407 12.6059 14.3407 12.7549 14.5157 12.7549C14.5676 12.7602 14.6198 12.7477 14.6637 12.7196C14.7076 12.6914 14.7408 12.6492 14.7577 12.5999H14.9327C14.9079 12.691 14.8523 12.7707 14.7753 12.8254C14.6984 12.8801 14.6048 12.9064 14.5107 12.8999C14.4463 12.899 14.3829 12.8845 14.3246 12.8574C14.2663 12.8303 14.2144 12.7911 14.1724 12.7424C14.1303 12.6937 14.0991 12.6367 14.0807 12.5751C14.0623 12.5135 14.0572 12.4486 14.0657 12.3849C14.0657 12.0849 14.2157 11.8479 14.5217 11.8479C14.5822 11.8471 14.6422 11.8592 14.6976 11.8833C14.7531 11.9074 14.8028 11.9431 14.8435 11.9879C14.8842 12.0328 14.9148 12.0857 14.9335 12.1433C14.9521 12.2009 14.9583 12.2617 14.9517 12.3219C14.9531 12.3495 14.9531 12.3772 14.9517 12.4049L14.2407 12.4059ZM14.7757 12.2839C14.7757 12.1189 14.6907 11.9839 14.5187 11.9839C14.3467 11.9839 14.2647 12.1069 14.2467 12.2839H14.7757ZM15.1757 12.1449C15.1757 12.0049 15.1757 11.9259 15.1757 11.8719H15.3457C15.3457 11.8999 15.3507 11.9789 15.3507 12.0769C15.3766 12.0086 15.423 11.9499 15.4834 11.9089C15.5439 11.8679 15.6156 11.8466 15.6887 11.8479V12.0209C15.6408 12.0176 15.5928 12.0252 15.5482 12.043C15.5037 12.0607 15.4637 12.0883 15.4312 12.1237C15.3988 12.159 15.3747 12.2012 15.3607 12.2471C15.3468 12.293 15.3434 12.3415 15.3507 12.3889V12.8769H15.1777L15.1757 12.1449ZM16.2457 11.8719H16.4177V11.5719H16.5907V11.8719H16.8127V12.0119H16.5907V12.5999C16.5907 12.6999 16.6147 12.7479 16.7057 12.7479C16.7352 12.7486 16.7647 12.7459 16.7937 12.7399V12.8709C16.745 12.8854 16.6944 12.8918 16.6437 12.8899C16.4877 12.8899 16.4187 12.8089 16.4187 12.6419V12.0119H16.2447L16.2457 11.8719ZM17.8557 12.3719C17.863 12.4384 17.8562 12.5056 17.8357 12.5693C17.8153 12.633 17.7817 12.6917 17.737 12.7415C17.6924 12.7913 17.6378 12.8312 17.5767 12.8584C17.5157 12.8857 17.4495 12.8999 17.3827 12.8999C17.3166 12.8994 17.2515 12.8849 17.1914 12.8575C17.1314 12.8301 17.0778 12.7903 17.0342 12.7407C16.9906 12.6912 16.9579 12.633 16.9384 12.5699C16.9188 12.5069 16.9128 12.4404 16.9207 12.3749C16.9132 12.3084 16.9199 12.2411 16.9402 12.1774C16.9606 12.1137 16.9943 12.055 17.0389 12.0053C17.0836 11.9555 17.1383 11.9157 17.1994 11.8886C17.2606 11.8615 17.3268 11.8476 17.3937 11.8479C17.4597 11.8481 17.5249 11.8623 17.585 11.8895C17.6451 11.9168 17.6988 11.9565 17.7424 12.006C17.7861 12.0555 17.8188 12.1137 17.8383 12.1768C17.8578 12.2399 17.8637 12.3064 17.8557 12.3719ZM17.0997 12.3719C17.0997 12.5919 17.2097 12.7529 17.3897 12.7529C17.5697 12.7529 17.6767 12.6009 17.6767 12.3729C17.6767 12.1449 17.5767 11.9909 17.3857 11.9909C17.1947 11.9909 17.0997 12.1429 17.0997 12.3719ZM18.6877 12.4029C18.6877 12.6029 18.7877 12.7519 18.9627 12.7519C19.0145 12.757 19.0666 12.7445 19.1105 12.7164C19.1545 12.6882 19.1876 12.6461 19.2047 12.5969H19.3797C19.3549 12.6882 19.2991 12.768 19.222 12.8227C19.1448 12.8774 19.051 12.9037 18.9567 12.8969C18.8923 12.896 18.829 12.8815 18.7706 12.8544C18.7123 12.8273 18.6604 12.7881 18.6184 12.7394C18.5764 12.6907 18.5451 12.6337 18.5267 12.5721C18.5083 12.5105 18.5032 12.4456 18.5117 12.3819C18.5117 12.0819 18.6617 11.8449 18.9677 11.8449C19.0282 11.8441 19.0882 11.8562 19.1436 11.8803C19.1991 11.9044 19.2489 11.9401 19.2895 11.9849C19.3302 12.0298 19.3608 12.0827 19.3795 12.1403C19.3981 12.1979 19.4043 12.2587 19.3977 12.3189C19.3977 12.3499 19.3977 12.3749 19.3977 12.4019L18.6877 12.4029ZM19.2227 12.2809C19.2227 12.1159 19.1377 11.9809 18.9657 11.9809C18.7937 11.9809 18.7117 12.1039 18.6937 12.2809H19.2227ZM19.7037 11.8689C19.8387 12.2799 19.9377 12.5869 19.9687 12.7119C19.9937 12.5999 20.0997 12.2989 20.2507 11.8689H20.4277L20.0577 12.8689H19.8667L19.5167 11.8689H19.7037ZM20.6977 12.4029C20.6977 12.6029 20.7977 12.7519 20.9727 12.7519C21.0246 12.7572 21.0767 12.7447 21.1207 12.7166C21.1646 12.6884 21.1978 12.6462 21.2147 12.5969H21.3897C21.3649 12.6882 21.3091 12.768 21.232 12.8227C21.1548 12.8774 21.061 12.9037 20.9667 12.8969C20.9023 12.896 20.8389 12.8815 20.7806 12.8544C20.7223 12.8273 20.6704 12.7881 20.6284 12.7394C20.5863 12.6907 20.5551 12.6337 20.5367 12.5721C20.5183 12.5105 20.5132 12.4456 20.5217 12.3819C20.5217 12.0819 20.6717 11.8449 20.9777 11.8449C21.0382 11.8441 21.0982 11.8562 21.1536 11.8803C21.2091 11.9044 21.2589 11.9401 21.2995 11.9849C21.3402 12.0298 21.3708 12.0827 21.3895 12.1403C21.4081 12.1979 21.4143 12.2587 21.4077 12.3189C21.4077 12.3499 21.4077 12.3749 21.4077 12.4019L20.6977 12.4029ZM21.2327 12.2809C21.2327 12.1159 21.1477 11.9809 20.9757 11.9809C20.8037 11.9809 20.7217 12.1039 20.7037 12.2809H21.2327ZM21.6327 12.1419C21.6327 12.0019 21.6327 11.9229 21.6327 11.8689H21.8027C21.8027 11.8969 21.8077 11.9759 21.8077 12.0739C21.8336 12.0056 21.88 11.9469 21.9404 11.9059C22.0009 11.8649 22.0726 11.8436 22.1457 11.8449V12.0179C22.0978 12.0146 22.0498 12.0222 22.0052 12.04C21.9607 12.0577 21.9207 12.0853 21.8882 12.1207C21.8558 12.156 21.8317 12.1982 21.8177 12.2441C21.8038 12.29 21.8003 12.3385 21.8077 12.3859V12.8739H21.6277L21.6327 12.1419ZM22.4497 11.8689C22.6117 12.3499 22.7007 12.6169 22.7277 12.7189C22.7607 12.6049 22.8277 12.3749 22.9957 11.8689H23.1707L22.8077 12.9219C22.7077 13.2159 22.6297 13.2899 22.4247 13.2899C22.3885 13.2896 22.3525 13.2873 22.3167 13.2829V13.1319C22.3442 13.1352 22.3719 13.1369 22.3997 13.1369C22.5267 13.1369 22.5757 13.0809 22.6347 12.9139L22.2577 11.8719L22.4497 11.8689Z" fill="white"/>
<path d="M23.957 12.8134L24.17 12.9314V11.9844H23.957V12.8134Z" fill="#EC6813"/>
<path d="M23.885 11.4148C23.9306 11.4286 23.9695 11.4589 23.994 11.4998L24.071 11.6578H24.171C24.171 11.6378 24.128 11.5048 24.107 11.4338C24.0936 11.3826 24.0755 11.3327 24.053 11.2848C24.0215 11.2388 23.9764 11.2039 23.924 11.1848C23.888 11.1688 23.709 11.1328 23.709 11.1328C23.709 11.1328 23.764 11.3128 23.777 11.3498C23.803 11.3844 23.8423 11.4076 23.885 11.4148Z" fill="#EC6813"/>
<path d="M24.8673 11.9844C24.769 11.9868 24.6743 12.022 24.5983 12.0844L24.5383 12.1294V12.0294H24.3203V12.8384L24.5293 12.9484V12.6154C24.5297 12.4974 24.5645 12.382 24.6293 12.2834C24.6554 12.2327 24.6945 12.1899 24.7427 12.1595C24.7909 12.1291 24.8463 12.1121 24.9033 12.1104C25.0473 12.1104 25.1183 12.1844 25.1183 12.3384C25.1239 12.4394 25.093 12.5391 25.0313 12.6194C24.9883 12.6704 24.9313 12.7264 24.8743 12.7874L24.8563 12.8054L25.0913 12.9524L25.1023 12.9404C25.2258 12.8169 25.2973 12.6509 25.3023 12.4764C25.3051 12.3544 25.2631 12.2356 25.1843 12.1424C25.146 12.0945 25.0973 12.0561 25.0418 12.0301C24.9863 12.0041 24.9256 11.9912 24.8643 11.9924" fill="#EC6813"/>
<path d="M26.4191 11.7252C26.4302 11.4379 26.3336 11.1568 26.1481 10.9372L26.1421 10.9302C26.0526 10.9277 25.9631 10.9347 25.8751 10.9512C25.8751 10.9582 25.9091 10.9882 25.9191 10.9972C26.0203 11.1224 26.0997 11.2637 26.1541 11.4152C26.1794 11.5162 26.1912 11.6201 26.1891 11.7242H23.8301V11.8882H26.1891V12.2252C26.1151 12.1452 26.0691 12.0982 26.0481 12.0812C25.9842 12.0208 25.9009 11.9853 25.8131 11.9812C25.7526 11.9814 25.6929 11.9956 25.6388 12.0227C25.5847 12.0497 25.5376 12.0889 25.5011 12.1372C25.4366 12.2038 25.3961 12.29 25.3861 12.3822C25.3883 12.4679 25.4173 12.5508 25.4691 12.6192C25.5171 12.6876 25.5767 12.7471 25.6451 12.7952C25.7123 12.8485 25.7944 12.8796 25.8801 12.8842C25.9413 12.8781 26.0006 12.8589 26.0537 12.8278C26.1069 12.7967 26.1527 12.7546 26.1881 12.7042V12.8142L26.4161 12.9142V11.8942H26.5531V11.7302L26.4191 11.7252ZM26.1401 12.3402C26.1324 12.4013 26.1067 12.4588 26.0661 12.5052C26.0281 12.5578 25.9834 12.6052 25.9331 12.6462C25.882 12.6934 25.8165 12.722 25.7471 12.7272C25.7213 12.7275 25.6958 12.7213 25.673 12.709C25.6503 12.6968 25.631 12.6789 25.6171 12.6572C25.5856 12.6132 25.5691 12.5603 25.5701 12.5062C25.5746 12.4465 25.5948 12.389 25.6287 12.3397C25.6626 12.2903 25.709 12.2508 25.7631 12.2252C25.8055 12.1946 25.8551 12.1757 25.9071 12.1702C25.9615 12.1712 26.0143 12.1883 26.0591 12.2192C26.0818 12.2309 26.101 12.2483 26.1149 12.2697C26.1287 12.2911 26.1367 12.3157 26.1381 12.3412" fill="#EC6813"/>
<path d="M26.6152 12.8134L26.8282 12.9314V11.9844H26.6152V12.8134Z" fill="#74B12E"/>
<path d="M28.5323 11.9844C28.434 11.9868 28.3393 12.022 28.2633 12.0844L28.2033 12.1294V12.0294H27.9863V12.8384L28.1953 12.9484V12.6154C28.1957 12.4974 28.2305 12.382 28.2953 12.2834C28.3213 12.2326 28.3604 12.1898 28.4086 12.1594C28.4568 12.1289 28.5124 12.112 28.5693 12.1104C28.7133 12.1104 28.7843 12.1844 28.7843 12.3384C28.7896 12.4394 28.7588 12.539 28.6973 12.6194C28.6543 12.6704 28.5973 12.7264 28.5403 12.7874L28.5223 12.8054L28.7573 12.9524L28.7683 12.9404C28.8918 12.8169 28.9633 12.6509 28.9683 12.4764C28.9711 12.3544 28.9291 12.2356 28.8503 12.1424C28.812 12.0945 28.7633 12.0561 28.7078 12.0301C28.6523 12.0041 28.5916 11.9912 28.5303 11.9924" fill="#74B12E"/>
<path d="M26.4863 11.7306V11.8946H27.0863V12.1346L27.0493 12.1666L27.0423 12.1726V12.2866L27.0693 12.2776C27.1093 12.2636 27.1503 12.2476 27.1913 12.2306C27.2866 12.1916 27.3884 12.1713 27.4913 12.1706C27.5281 12.1679 27.565 12.1733 27.5993 12.1866C27.6296 12.2026 27.6558 12.2252 27.6763 12.2526V12.3036C27.6095 12.2676 27.5342 12.25 27.4583 12.2526C27.3801 12.2507 27.3024 12.2648 27.2298 12.2941C27.1572 12.3233 27.0914 12.367 27.0363 12.4226C27.0096 12.4458 26.9877 12.4741 26.9721 12.5059C26.9565 12.5376 26.9474 12.5722 26.9453 12.6076C26.9455 12.6633 26.9661 12.7171 27.0033 12.7586C27.0447 12.8041 27.0957 12.8398 27.1526 12.8632C27.2095 12.8865 27.2709 12.8969 27.3323 12.8936C27.4247 12.8954 27.5162 12.8767 27.6003 12.8386C27.6203 12.8296 27.6453 12.8156 27.6743 12.7996C27.6746 12.8046 27.6746 12.8096 27.6743 12.8146V12.8276L27.6863 12.8326L27.8513 12.8996L27.8783 12.9096V12.4826C27.8861 12.36 27.8688 12.2372 27.8273 12.1216C27.7935 12.0704 27.7459 12.03 27.6899 12.005C27.6339 11.98 27.572 11.9715 27.5113 11.9806C27.4724 11.9808 27.4336 11.9845 27.3953 11.9916C27.3153 12.0056 27.2773 12.0146 27.2583 12.0186V11.8906H29.0413V11.7266L26.4863 11.7306ZM27.4323 12.4376C27.4812 12.4399 27.5294 12.4496 27.5753 12.4666C27.6613 12.4956 27.6703 12.5196 27.6703 12.5296C27.6703 12.5396 27.6613 12.5686 27.5413 12.6406C27.4385 12.7025 27.3204 12.7347 27.2003 12.7336C27.1133 12.7336 27.0633 12.7136 27.0503 12.6756C27.0573 12.6421 27.074 12.6115 27.0983 12.5876C27.1388 12.5386 27.1899 12.4996 27.2478 12.4736C27.3058 12.4476 27.3689 12.4353 27.4323 12.4376Z" fill="#74B12E"/>
<path d="M26.5588 11.4148C26.6044 11.4286 26.6433 11.4589 26.6678 11.4998L26.7448 11.6578H26.8448C26.8448 11.6378 26.8018 11.5048 26.7798 11.4338C26.7668 11.3826 26.7491 11.3327 26.7268 11.2848C26.6952 11.2389 26.6501 11.204 26.5978 11.1848C26.5618 11.1688 26.3828 11.1328 26.3828 11.1328C26.3828 11.1328 26.4388 11.3128 26.4508 11.3498C26.4769 11.3844 26.5151 11.4076 26.5578 11.4148" fill="#74B12E"/>
</g>
</svg>
