<svg width="206" height="50" viewBox="0 0 206 50" fill="none" xmlns="http://www.w3.org/2000/svg">
<mask id="mask0_1852_1944" style="mask-type:luminance" maskUnits="userSpaceOnUse" x="0" y="7" width="92" height="43">
<path d="M91.0049 7.82031H0V49.5178H91.0049V7.82031Z" fill="white"/>
</mask>
<g mask="url(#mask0_1852_1944)">
<path d="M53.7795 23.647C52.0354 22.3555 50.111 21.3273 48.068 20.5952C45.4504 19.5132 43.1923 18.5802 43.1923 16.8502C43.1968 16.4711 43.2893 16.0982 43.4625 15.7609C43.6356 15.4236 43.8847 15.1311 44.1901 14.9064C44.9643 14.3469 45.9016 14.0588 46.8564 14.0868C49.0272 14.1997 51.1014 15.0201 52.7622 16.4226L53.4101 17.0025L56.3258 11.5663L56.0019 11.2164C53.5219 8.98114 50.2671 7.80246 46.9309 7.93145C44.2548 7.86092 41.6429 8.75685 39.5736 10.4551C38.6321 11.2513 37.8763 12.2439 37.3592 13.3632C36.842 14.4825 36.5761 15.7014 36.5802 16.9344C36.563 18.0975 36.8177 19.2485 37.3239 20.2957C37.8301 21.343 38.5738 22.2576 39.4959 22.9666C41.2235 24.2589 43.1258 25.2995 45.1458 26.0573C47.838 27.2171 50.164 28.2213 50.164 30.0064C50.164 31.3638 49.244 32.8184 46.662 32.8184C44.1698 32.6592 41.8065 31.6547 39.9624 29.9708L39.4052 29.4297L35.793 34.4285L36.1526 34.8302C36.9557 35.6535 37.872 36.3581 38.8739 36.923C41.2119 38.2787 43.8686 38.9876 46.5713 38.977C49.3083 39.0833 51.9798 38.1228 54.0225 36.2978C54.8865 35.4718 55.5717 34.4771 56.0353 33.3753C56.499 32.2736 56.7313 31.0883 56.7178 29.893C56.749 28.6961 56.4997 27.5086 55.9901 26.4252C55.4805 25.3418 54.7246 24.3926 53.7827 23.6534" fill="#080071"/>
<path d="M91.0027 8.35156H84.248V38.5127H91.0027V8.35156Z" fill="#080071"/>
<path d="M80.0117 24.9672C79.3549 23.9289 78.432 23.0854 77.3389 22.5245C78.2266 21.7912 78.9359 20.8656 79.4129 19.8177C79.89 18.7698 80.1224 17.6271 80.0926 16.4761C80.1305 15.3263 79.9016 14.1833 79.4238 13.1368C78.9461 12.0902 78.2324 11.1685 77.3389 10.4439C75.3688 8.99429 72.9634 8.25953 70.5195 8.36079H59.5273V38.5219H70.6426C73.2686 38.6195 75.8556 37.8636 78.016 36.3675C79.0693 35.5632 79.9136 34.5172 80.4774 33.3178C81.0413 32.1185 81.3082 30.801 81.2556 29.4768C81.2743 27.8871 80.8394 26.325 80.0019 24.9737M71.0346 32.8817H65.8868V14.0075H70.4223C70.8473 13.9575 71.2781 14.003 71.6832 14.1407C72.0883 14.2784 72.4576 14.5049 72.764 14.8035C73.0704 15.1022 73.3063 15.4655 73.4543 15.867C73.6024 16.2685 73.6589 16.6979 73.6198 17.124C73.6709 17.5412 73.6246 17.9646 73.4844 18.3608C73.3443 18.757 73.1142 19.1154 72.8121 19.4077C72.5101 19.7 72.1445 19.9182 71.7438 20.0453C71.3432 20.1724 70.9185 20.2049 70.5033 20.1401H68.9418V25.6897H71.0314C71.5359 25.6663 72.04 25.7458 72.5129 25.9235C72.9857 26.1012 73.4175 26.3732 73.7818 26.7231C74.1073 27.035 74.3623 27.4129 74.5299 27.8313C74.6975 28.2498 74.7739 28.6993 74.7537 29.1496C74.7949 29.6493 74.7268 30.1519 74.5542 30.6227C74.3815 31.0934 74.1084 31.5208 73.7539 31.8754C73.3994 32.2299 72.9719 32.503 72.5012 32.6756C72.0304 32.8483 71.5278 32.9164 71.0281 32.8752" fill="#080071"/>
<path d="M15.5912 7.82031C11.5883 7.82708 7.74046 9.36929 4.84092 12.129C1.94139 14.8888 0.211104 18.6558 0.00673117 22.6535C-0.197641 26.6512 1.13947 30.575 3.74246 33.6161C6.34544 36.6572 10.0159 38.5837 13.9973 38.9987V27.6599C13.0157 27.2867 12.1959 26.5813 11.6805 25.6663C11.1652 24.7513 10.9868 23.6846 11.1765 22.6517C11.3662 21.6188 11.912 20.6851 12.7189 20.0129C13.5257 19.3407 14.5427 18.9726 15.5928 18.9726C16.643 18.9726 17.6599 19.3407 18.4668 20.0129C19.2737 20.6851 19.8194 21.6188 20.0091 22.6517C20.1988 23.6846 20.0205 24.7513 19.5051 25.6663C18.9898 26.5813 18.17 27.2867 17.1884 27.6599V38.9987C21.17 38.5837 24.8407 36.6569 27.4437 33.6155C30.0467 30.5741 31.3836 26.6499 31.1788 22.6519C30.974 18.6539 29.2431 14.8869 26.3429 12.1274C23.4428 9.36789 19.5944 7.82626 15.5912 7.82031Z" fill="#0094D7"/>
<path d="M17.7092 44.2079H16.2676V43.6993H19.7502V44.2079H18.2924V48.1668H17.7092V44.2079ZM20.816 43.4531V45.3969C20.9159 45.2184 21.0639 45.0714 21.2432 44.9729C21.4224 44.8744 21.6258 44.8282 21.83 44.8397C22.3516 44.8397 22.9251 45.1248 22.9251 46.0934V48.1701H22.3646V46.1874C22.3646 45.6334 22.1313 45.3256 21.6551 45.3256C21.0687 45.3256 20.8096 45.7112 20.8096 46.3915V48.1701H20.2491V43.4531H20.816ZM24.2242 46.6409C24.2242 47.2889 24.5481 47.7716 25.115 47.7716C25.2832 47.7887 25.4523 47.7484 25.5946 47.6573C25.737 47.5661 25.8443 47.4294 25.899 47.2694H26.4563C26.376 47.5646 26.1959 47.8228 25.9466 48C25.6973 48.1772 25.3943 48.2625 25.0891 48.2413C24.8808 48.2386 24.6754 48.1917 24.4865 48.1037C24.2976 48.0158 24.1295 47.8888 23.9933 47.7311C23.8571 47.5735 23.7558 47.3888 23.6962 47.1891C23.6366 46.9895 23.62 46.7794 23.6475 46.5729C23.6475 45.601 24.1334 44.8332 25.1248 44.8332C25.3208 44.8306 25.5151 44.8698 25.6949 44.948C25.8747 45.0262 26.0357 45.1418 26.1675 45.287C26.2992 45.4322 26.3985 45.6037 26.4589 45.7902C26.5193 45.9767 26.5394 46.174 26.5178 46.3688C26.5178 46.4692 26.5178 46.5502 26.5178 46.6377L24.2242 46.6409ZM25.9574 46.2457C25.9574 45.7112 25.682 45.2738 25.1248 45.2738C24.5676 45.2738 24.3019 45.6723 24.2436 46.2457H25.9574ZM28.8471 43.4564H29.4076V45.3645C29.5092 45.1834 29.6613 45.0358 29.8454 44.9397C30.0295 44.8436 30.2376 44.8032 30.4443 44.8235C31.2607 44.8235 31.7758 45.4973 31.7758 46.4628C31.7758 47.4282 31.2801 48.2316 30.36 48.2316C30.1657 48.2581 29.9679 48.2238 29.7938 48.1333C29.6198 48.0427 29.4781 47.9006 29.3881 47.7262C29.3884 47.8701 29.3808 48.014 29.3655 48.1571H28.8244C28.8244 47.7942 28.8244 47.4282 28.8244 47.0653L28.8471 43.4564ZM31.1991 46.4854C31.1991 45.7824 30.8751 45.3127 30.3147 45.3127C29.6246 45.3127 29.3784 45.776 29.3784 46.5502C29.3784 47.2273 29.5955 47.7683 30.2855 47.7683C30.8622 47.7683 31.1991 47.2759 31.1991 46.4725M34.9312 47.4444C34.9295 47.6816 34.9447 47.9187 34.9765 48.1538H34.4258C34.3917 48.0149 34.3743 47.8725 34.374 47.7295C34.2743 47.9025 34.126 48.0424 33.9474 48.1316C33.7688 48.2209 33.5679 48.2557 33.3697 48.2316C33.2302 48.2495 33.0884 48.2369 32.9543 48.1946C32.8201 48.1524 32.6967 48.0816 32.5926 47.987C32.4885 47.8925 32.4062 47.7764 32.3513 47.647C32.2964 47.5175 32.2703 47.3776 32.2747 47.237C32.2747 46.5113 32.8448 46.1777 33.8135 46.1777H34.3675V45.899C34.3675 45.6107 34.2768 45.2511 33.6677 45.2511C33.1235 45.2511 33.0198 45.52 32.9744 45.7759H32.4302C32.4723 45.3289 32.7541 44.8041 33.6871 44.8041C34.4809 44.8041 34.9215 45.128 34.9215 45.8699L34.9312 47.4444ZM34.3837 46.6733V46.5697H33.8427C33.1947 46.5697 32.8481 46.7478 32.8481 47.2176C32.8455 47.3007 32.861 47.3833 32.8935 47.4598C32.9261 47.5363 32.9748 47.6048 33.0365 47.6606C33.0981 47.7164 33.1711 47.7581 33.2505 47.7828C33.3298 47.8076 33.4136 47.8148 33.496 47.804C34.28 47.804 34.3837 47.2759 34.3837 46.6863M35.9063 45.7338C35.9063 45.452 35.9063 45.1669 35.9063 44.9142H36.4538C36.4538 45.0114 36.4765 45.3515 36.4765 45.4487C36.5617 45.2525 36.7063 45.0879 36.89 44.9781C37.0736 44.8683 37.287 44.8187 37.5002 44.8364C38.1093 44.8364 38.5887 45.209 38.5887 46.074V48.1668H38.0283V46.1453C38.0283 45.6528 37.8371 45.3224 37.3382 45.3224C36.7259 45.3224 36.4765 45.7889 36.4765 46.4433V48.1668H35.916L35.9063 45.7338ZM40.1017 46.466C40.377 46.142 41.0897 45.3937 41.5303 44.911H42.2009L40.9764 46.1777L42.3402 48.1636H41.6923L40.5973 46.5437L40.1081 47.0167V48.1701H39.5477V43.4531H40.1081L40.1017 46.466ZM43.053 46.6409C43.053 47.2889 43.3769 47.7716 43.9439 47.7716C44.1121 47.7887 44.2811 47.7484 44.4235 47.6573C44.5658 47.5661 44.6731 47.4294 44.7279 47.2694H45.2948C45.2146 47.5646 45.0345 47.8228 44.7852 48C44.5359 48.1772 44.2328 48.2625 43.9277 48.2413C43.7193 48.2386 43.5139 48.1917 43.3251 48.1037C43.1362 48.0158 42.9681 47.8888 42.8318 47.7311C42.6956 47.5735 42.5944 47.3888 42.5348 47.1891C42.4751 46.9895 42.4585 46.7794 42.486 46.5729C42.486 45.601 42.972 44.8332 43.9633 44.8332C44.1593 44.8306 44.3537 44.8698 44.5334 44.948C44.7132 45.0262 44.8743 45.1418 45.006 45.287C45.1377 45.4322 45.2371 45.6037 45.2975 45.7902C45.3579 45.9767 45.378 46.174 45.3564 46.3688C45.361 46.4584 45.361 46.5481 45.3564 46.6377L43.053 46.6409ZM44.7862 46.2457C44.7862 45.7112 44.5108 45.2738 43.9536 45.2738C43.3964 45.2738 43.1307 45.6723 43.0724 46.2457H44.7862ZM46.082 45.7954C46.082 45.3418 46.082 45.0859 46.082 44.911H46.6328C46.6328 45.0017 46.649 45.2576 46.649 45.5751C46.733 45.3538 46.8832 45.1638 47.0792 45.031C47.2751 44.8982 47.5073 44.8291 47.744 44.8332V45.3937C47.5889 45.3831 47.4334 45.4076 47.2891 45.4652C47.1447 45.5228 47.0152 45.6122 46.9101 45.7267C46.8049 45.8412 46.7269 45.9778 46.6817 46.1265C46.6365 46.2753 46.6253 46.4322 46.649 46.5858V48.1668H46.0885L46.082 45.7954ZM49.5485 44.911H50.1057V43.9391H50.6661V44.911H51.3853V45.3645H50.6661V47.2694C50.6661 47.5934 50.7439 47.7489 51.0387 47.7489C51.1344 47.7511 51.23 47.7424 51.3238 47.723V48.1474C51.1663 48.1943 51.0021 48.2151 50.8378 48.2089C50.3325 48.2089 50.1089 47.9465 50.1089 47.4055V45.3645H49.5452L49.5485 44.911ZM54.7643 46.5308C54.788 46.7462 54.766 46.9641 54.6998 47.1704C54.6336 47.3768 54.5246 47.5668 54.38 47.7282C54.2355 47.8896 54.0585 48.0187 53.8607 48.1071C53.6629 48.1955 53.4486 48.2412 53.2319 48.2413C53.0181 48.2396 52.807 48.1929 52.6125 48.104C52.418 48.0152 52.2444 47.8863 52.1031 47.7257C51.9618 47.5652 51.856 47.3766 51.7926 47.1724C51.7292 46.9682 51.7097 46.7528 51.7352 46.5405C51.711 46.3252 51.7326 46.1072 51.7986 45.9008C51.8647 45.6944 51.9736 45.5044 52.1184 45.3431C52.2631 45.1818 52.4403 45.053 52.6384 44.9652C52.8365 44.8773 53.0509 44.8323 53.2676 44.8332C53.4814 44.8339 53.6927 44.8799 53.8875 44.9682C54.0822 45.0565 54.2561 45.1852 54.3975 45.3456C54.5389 45.506 54.6448 45.6946 54.708 45.8989C54.7712 46.1031 54.7904 46.3185 54.7643 46.5308ZM52.3151 46.5308C52.3151 47.2435 52.6715 47.7651 53.2546 47.7651C53.8377 47.7651 54.1844 47.2727 54.1844 46.534C54.1844 45.7954 53.8604 45.2965 53.2417 45.2965C52.6229 45.2965 52.3151 45.7889 52.3151 46.5308ZM57.4597 46.6312C57.4597 47.2791 57.7836 47.7618 58.3506 47.7618C58.5187 47.7784 58.6875 47.7379 58.8297 47.6468C58.9719 47.5557 59.0793 47.4193 59.1346 47.2597H59.7015C59.6212 47.5554 59.4406 47.8141 59.1906 47.9914C58.9406 48.1687 58.6368 48.2536 58.3311 48.2316C58.1228 48.2288 57.9174 48.1819 57.7285 48.094C57.5396 48.0061 57.3715 47.8791 57.2353 47.7214C57.0991 47.5638 56.9978 47.379 56.9382 47.1794C56.8786 46.9797 56.862 46.7697 56.8895 46.5632C56.8895 45.5913 57.3754 44.8235 58.3668 44.8235C58.5628 44.8209 58.7571 44.86 58.9369 44.9383C59.1167 45.0165 59.2778 45.1321 59.4095 45.2773C59.5412 45.4225 59.6405 45.594 59.7009 45.7805C59.7613 45.967 59.7814 46.1642 59.7598 46.3591C59.7598 46.4595 59.7598 46.5405 59.7598 46.628L57.4597 46.6312ZM59.1929 46.236C59.1929 45.7014 58.9175 45.2641 58.3603 45.2641C57.8031 45.2641 57.5374 45.6626 57.4791 46.236H59.1929ZM60.7512 44.9012C61.1885 46.2327 61.5092 47.2273 61.6097 47.6323C61.6907 47.2694 62.0341 46.2943 62.5232 44.9012H63.0967L61.898 48.1409H61.2792L60.1453 44.9012H60.7512ZM63.9714 46.6312C63.9714 47.2791 64.2953 47.7618 64.8623 47.7618C65.0304 47.779 65.1995 47.7387 65.3419 47.6475C65.4842 47.5563 65.5915 47.4196 65.6463 47.2597H66.2132C66.1329 47.5554 65.9523 47.8141 65.7023 47.9914C65.4523 48.1687 65.1485 48.2536 64.8428 48.2316C64.6345 48.2288 64.4291 48.1819 64.2402 48.094C64.0513 48.0061 63.8832 47.8791 63.747 47.7214C63.6108 47.5638 63.5095 47.379 63.4499 47.1794C63.3903 46.9797 63.3737 46.7697 63.4012 46.5632C63.4012 45.5913 63.8871 44.8235 64.8785 44.8235C65.0745 44.8209 65.2688 44.86 65.4486 44.9383C65.6284 45.0165 65.7894 45.1321 65.9212 45.2773C66.0529 45.4225 66.1522 45.594 66.2126 45.7805C66.273 45.967 66.2931 46.1642 66.2715 46.3591C66.2715 46.4595 66.2715 46.5405 66.2715 46.628L63.9714 46.6312ZM65.7046 46.236C65.7046 45.7014 65.4292 45.2641 64.872 45.2641C64.3148 45.2641 64.0491 45.6626 63.9908 46.236H65.7046ZM67.0004 45.7857C67.0004 45.3321 67.0004 45.0762 67.0004 44.9012H67.5512C67.5512 44.992 67.5674 45.2479 67.5674 45.5654C67.6513 45.3441 67.8016 45.154 67.9976 45.0213C68.1935 44.8885 68.4257 44.8194 68.6624 44.8235V45.384C68.5073 45.3734 68.3518 45.3978 68.2075 45.4555C68.0631 45.5131 67.9336 45.6025 67.8285 45.717C67.7233 45.8314 67.6453 45.9681 67.6001 46.1168C67.5549 46.2655 67.5437 46.4225 67.5674 46.5761V48.1571H66.9842L67.0004 45.7857ZM69.6472 44.9012C70.172 46.4595 70.4604 47.3245 70.5478 47.6549C70.6548 47.2856 70.8718 46.5405 71.4161 44.9012H71.983L70.807 48.3126C70.483 49.265 70.2304 49.5048 69.5662 49.5048C69.4493 49.504 69.3324 49.4965 69.2164 49.4821V48.9929C69.3056 49.0037 69.3954 49.0091 69.4852 49.0091C69.8967 49.0091 70.0554 48.8277 70.2466 48.2867L69.0252 44.911L69.6472 44.9012Z" fill="white"/>
<path d="M74.5293 47.9669L75.2193 48.3492V45.2812H74.5293V47.9669Z" fill="#EC6813"/>
<path d="M74.2967 43.437C74.4445 43.4818 74.5704 43.58 74.6499 43.7124L74.8993 44.2243H75.2232C75.2232 44.1595 75.084 43.7286 75.0159 43.4986C74.9725 43.3327 74.9139 43.1711 74.841 43.0159C74.7389 42.8669 74.5928 42.7536 74.4231 42.6919C74.3064 42.6401 73.7266 42.5234 73.7266 42.5234C73.7266 42.5234 73.9047 43.1066 73.9468 43.2264C74.0312 43.3384 74.1585 43.4138 74.2967 43.437Z" fill="#EC6813"/>
<path d="M77.4791 45.2812C77.1606 45.2891 76.8539 45.4031 76.6077 45.6052L76.4133 45.751V45.4271H75.707V48.0479L76.3841 48.4043V47.3255C76.3854 46.9431 76.498 46.5694 76.7081 46.2499C76.7925 46.0857 76.9193 45.9471 77.0754 45.8486C77.2315 45.75 77.4112 45.6951 77.5957 45.6894C78.0622 45.6894 78.2923 45.9292 78.2923 46.4281C78.3103 46.7555 78.2102 47.0785 78.0104 47.3384C77.8711 47.5037 77.6865 47.6851 77.5018 47.8827L77.4435 47.941L78.2048 48.4172L78.2404 48.3784C78.6403 47.9783 78.8721 47.4406 78.8883 46.8752C78.8972 46.4799 78.7613 46.0951 78.5061 45.7931C78.382 45.6381 78.2241 45.5137 78.0443 45.4295C77.8646 45.3452 77.6678 45.3034 77.4694 45.3072" fill="#EC6813"/>
<path d="M82.5066 44.4365C82.5427 43.5058 82.2296 42.5952 81.6287 41.8837L81.6092 41.861C81.3193 41.8528 81.0293 41.8756 80.7443 41.929C80.7443 41.9517 80.8544 42.0489 80.8868 42.0781C81.2147 42.4835 81.4721 42.9413 81.6481 43.4322C81.7301 43.7594 81.7683 44.096 81.7615 44.4333H74.1191V44.9646H81.7615V46.0563C81.5218 45.7972 81.3727 45.6449 81.3047 45.5898C81.0979 45.3942 80.8277 45.2792 80.5434 45.2658C80.3473 45.2666 80.1542 45.3126 79.9788 45.4003C79.8035 45.4879 79.6508 45.6149 79.5326 45.7712C79.3236 45.987 79.1926 46.2663 79.1601 46.5649C79.1672 46.8427 79.2612 47.1112 79.4289 47.3327C79.5846 47.5543 79.7775 47.7473 79.9991 47.9029C80.2169 48.0756 80.4829 48.1763 80.7604 48.1912C80.9589 48.1715 81.1508 48.1092 81.323 48.0086C81.4952 47.908 81.6436 47.7713 81.7582 47.6081V47.9645L82.4969 48.2885V44.984H82.9407V44.4527L82.5066 44.4365ZM81.6028 46.4289C81.5779 46.627 81.4944 46.8131 81.363 46.9634C81.2401 47.1339 81.0952 47.2875 80.9322 47.4202C80.7667 47.5732 80.5543 47.6657 80.3296 47.6826C80.2459 47.6837 80.1633 47.6635 80.0896 47.6238C80.0159 47.5841 79.9535 47.5263 79.9084 47.4559C79.8065 47.3134 79.7531 47.1418 79.7561 46.9667C79.7707 46.7732 79.8362 46.5871 79.946 46.4272C80.0558 46.2673 80.2061 46.1393 80.3814 46.0563C80.5187 45.9573 80.6796 45.8959 80.8479 45.8781C81.0241 45.8816 81.1953 45.9368 81.3403 46.0369C81.4138 46.0747 81.4761 46.1311 81.521 46.2004C81.5659 46.2697 81.5919 46.3496 81.5963 46.4321" fill="#EC6813"/>
<path d="M83.1406 47.9669L83.8307 48.3492V45.2812H83.1406V47.9669Z" fill="#74B12E"/>
<path d="M89.3528 45.2812C89.0344 45.2891 88.7276 45.4031 88.4814 45.6052L88.287 45.751V45.4271H87.584V48.0479L88.2611 48.4043V47.3255C88.2624 46.9431 88.375 46.5694 88.5851 46.2499C88.6692 46.0855 88.796 45.9467 88.9521 45.8481C89.1083 45.7495 89.2881 45.6947 89.4727 45.6894C89.9392 45.6894 90.1692 45.9292 90.1692 46.4281C90.1864 46.7554 90.0864 47.0781 89.8874 47.3384C89.7481 47.5037 89.5634 47.6851 89.3788 47.8827L89.3205 47.941L90.0818 48.4172L90.1174 48.3784C90.5173 47.9783 90.7491 47.4406 90.7653 46.8752C90.7742 46.4799 90.6382 46.0951 90.383 45.7931C90.259 45.6381 90.101 45.5137 89.9213 45.4295C89.7415 45.3452 89.5448 45.3034 89.3464 45.3072" fill="#74B12E"/>
<path d="M82.7246 44.4583V44.9896H84.6684V45.7671L84.5485 45.8708L84.5259 45.8902V46.2595L84.6133 46.2304C84.7429 46.185 84.8757 46.1332 85.0086 46.0781C85.3172 45.9519 85.6471 45.8859 85.9805 45.8837C86.0995 45.875 86.219 45.8927 86.3304 45.9355C86.4283 45.9876 86.5134 46.0606 86.5798 46.1494V46.3146C86.3632 46.198 86.1194 46.141 85.8735 46.1494C85.6202 46.1433 85.3683 46.1891 85.1332 46.2838C84.8981 46.3785 84.6849 46.5201 84.5064 46.7001C84.4197 46.7752 84.349 46.867 84.2984 46.9699C84.2477 47.0729 84.2182 47.1849 84.2116 47.2994C84.212 47.48 84.2789 47.6542 84.3995 47.7886C84.5335 47.9361 84.6987 48.0519 84.8831 48.1276C85.0675 48.2032 85.2664 48.2368 85.4654 48.226C85.7645 48.2321 86.0611 48.1712 86.3336 48.0478C86.3984 48.0186 86.4794 47.9733 86.5733 47.9214C86.5742 47.9376 86.5742 47.9539 86.5733 47.97V48.0122L86.6122 48.0284L87.1467 48.2454L87.2342 48.2778V46.8945C87.2595 46.4974 87.2033 46.0994 87.069 45.725C86.9595 45.5593 86.805 45.4283 86.6237 45.3474C86.4423 45.2665 86.2417 45.239 86.0453 45.2682C85.9192 45.269 85.7934 45.281 85.6694 45.3038C85.4103 45.3492 85.2872 45.3783 85.2256 45.3913V44.9766H91.0019V44.4453L82.7246 44.4583ZM85.7893 46.7487C85.9476 46.7561 86.1039 46.7878 86.2526 46.8426C86.5312 46.9366 86.5604 47.0144 86.5604 47.0468C86.5604 47.0791 86.5312 47.1731 86.1425 47.4064C85.8092 47.6071 85.4268 47.7113 85.0377 47.7076C84.7559 47.7076 84.5939 47.6428 84.5518 47.5197C84.5744 47.4114 84.6284 47.3122 84.7073 47.2346C84.8383 47.0761 85.004 46.9498 85.1917 46.8656C85.3793 46.7813 85.5838 46.7413 85.7893 46.7487Z" fill="#74B12E"/>
<path d="M82.9589 43.437C83.1067 43.4818 83.2325 43.58 83.312 43.7124L83.5614 44.2243H83.8854C83.8854 44.1595 83.7461 43.7286 83.6748 43.4986C83.6326 43.3327 83.5752 43.1711 83.5031 43.0159C83.4008 42.8672 83.2547 42.754 83.0852 42.6919C82.9686 42.6401 82.3887 42.5234 82.3887 42.5234C82.3887 42.5234 82.5701 43.1066 82.609 43.2264C82.6933 43.3384 82.8174 43.4138 82.9556 43.437" fill="#74B12E"/>
</g>
<path d="M107.358 39.4261C105.114 39.4261 103.182 38.9716 101.562 38.0625C99.9527 37.1439 98.7121 35.8466 97.8409 34.1705C96.9697 32.4848 96.5341 30.4915 96.5341 28.1903C96.5341 25.946 96.9697 23.9763 97.8409 22.2812C98.7121 20.5862 99.9384 19.2652 101.52 18.3182C103.111 17.3712 104.976 16.8977 107.116 16.8977C108.556 16.8977 109.896 17.1297 111.136 17.5938C112.386 18.0483 113.475 18.7348 114.403 19.6534C115.341 20.572 116.07 21.7273 116.591 23.1193C117.112 24.5019 117.372 26.1212 117.372 27.9773V29.6392H98.9489V25.8892H111.676C111.676 25.018 111.487 24.2462 111.108 23.5739C110.729 22.9015 110.204 22.3759 109.531 21.9972C108.868 21.6089 108.097 21.4148 107.216 21.4148C106.297 21.4148 105.483 21.6278 104.773 22.054C104.072 22.4706 103.523 23.0341 103.125 23.7443C102.727 24.4451 102.524 25.2263 102.514 26.0881V29.6534C102.514 30.733 102.713 31.6657 103.111 32.4517C103.518 33.2377 104.091 33.8438 104.83 34.2699C105.568 34.696 106.444 34.9091 107.457 34.9091C108.13 34.9091 108.745 34.8144 109.304 34.625C109.863 34.4356 110.341 34.1515 110.739 33.7727C111.136 33.3939 111.439 32.9299 111.648 32.3807L117.244 32.75C116.96 34.0947 116.378 35.2689 115.497 36.2727C114.626 37.267 113.499 38.0436 112.116 38.6023C110.743 39.1515 109.157 39.4261 107.358 39.4261ZM121.435 39V9.90909H132.912C135.118 9.90909 136.998 10.3305 138.551 11.1733C140.104 12.0066 141.288 13.1667 142.102 14.6534C142.926 16.1307 143.338 17.8352 143.338 19.767C143.338 21.6989 142.921 23.4034 142.088 24.8807C141.255 26.358 140.047 27.5085 138.466 28.3324C136.894 29.1562 134.991 29.5682 132.756 29.5682H125.44V24.6392H131.761C132.945 24.6392 133.92 24.4356 134.688 24.0284C135.464 23.6117 136.042 23.0388 136.42 22.3097C136.809 21.571 137.003 20.7235 137.003 19.767C137.003 18.8011 136.809 17.9583 136.42 17.2386C136.042 16.5095 135.464 15.946 134.688 15.5483C133.911 15.1411 132.926 14.9375 131.733 14.9375H127.585V39H121.435ZM152.855 39.4119C151.463 39.4119 150.223 39.1705 149.134 38.6875C148.045 38.1951 147.183 37.4706 146.548 36.5142C145.923 35.5483 145.611 34.3456 145.611 32.9062C145.611 31.6941 145.833 30.6761 146.278 29.8523C146.723 29.0284 147.33 28.3655 148.097 27.8636C148.864 27.3617 149.735 26.983 150.71 26.7273C151.695 26.4716 152.727 26.2917 153.807 26.1875C155.076 26.0549 156.098 25.9318 156.875 25.8182C157.652 25.6951 158.215 25.5152 158.565 25.2784C158.916 25.0417 159.091 24.6913 159.091 24.2273V24.142C159.091 23.2424 158.807 22.5464 158.239 22.054C157.68 21.5616 156.884 21.3153 155.852 21.3153C154.763 21.3153 153.897 21.5568 153.253 22.0398C152.609 22.5133 152.183 23.1098 151.974 23.8295L146.378 23.375C146.662 22.0492 147.221 20.9034 148.054 19.9375C148.887 18.9621 149.962 18.214 151.278 17.6932C152.604 17.1629 154.138 16.8977 155.881 16.8977C157.093 16.8977 158.253 17.0398 159.361 17.3239C160.478 17.608 161.468 18.0483 162.33 18.6449C163.201 19.2415 163.887 20.0085 164.389 20.946C164.891 21.8741 165.142 22.9867 165.142 24.2841V39H159.403V35.9744H159.233C158.883 36.6562 158.414 37.2576 157.827 37.7784C157.24 38.2898 156.534 38.6922 155.71 38.9858C154.886 39.2699 153.935 39.4119 152.855 39.4119ZM154.588 35.2358C155.478 35.2358 156.264 35.0606 156.946 34.7102C157.628 34.3504 158.163 33.8674 158.551 33.2614C158.939 32.6553 159.134 31.9687 159.134 31.2017V28.8864C158.944 29.0095 158.684 29.1231 158.352 29.2273C158.03 29.322 157.666 29.4119 157.259 29.4972C156.851 29.5729 156.444 29.6439 156.037 29.7102C155.63 29.767 155.26 29.8191 154.929 29.8665C154.219 29.9706 153.598 30.1364 153.068 30.3636C152.538 30.5909 152.126 30.8987 151.832 31.2869C151.539 31.6657 151.392 32.1392 151.392 32.7074C151.392 33.5312 151.69 34.161 152.287 34.5966C152.893 35.0227 153.66 35.2358 154.588 35.2358ZM172.791 47.1818C172.024 47.1818 171.304 47.1203 170.632 46.9972C169.969 46.8835 169.42 46.7367 168.984 46.5568L170.348 42.0398C171.058 42.2576 171.697 42.3759 172.266 42.3949C172.843 42.4138 173.34 42.2813 173.757 41.9972C174.183 41.7131 174.529 41.2301 174.794 40.5483L175.149 39.625L167.322 17.1818H173.686L178.203 33.2045H178.43L182.99 17.1818H189.396L180.916 41.358C180.509 42.5322 179.955 43.5549 179.254 44.4261C178.563 45.3068 177.687 45.9839 176.626 46.4574C175.566 46.9403 174.287 47.1818 172.791 47.1818Z" fill="#00A9E0"/>
</svg>
