<svg xmlns="http://www.w3.org/2000/svg" width="284.051" height="284.099" viewBox="0 0 284.051 284.099">
  <g id="Group_57947" data-name="Group 57947" transform="translate(2.492 2.327)">
    <g id="Group_57946" data-name="Group 57946" transform="translate(0.508 0.85)">
      <path id="Path_71443" data-name="Path 71443" d="M78.6,32.222l52.79-29.266a16.786,16.786,0,0,1,16.276,0L278.558,75.517H.508L61.285,41.823" transform="translate(-0.508 -0.85)" fill="none" stroke="#b22382" stroke-linecap="round" stroke-linejoin="round" stroke-width="6"/>
      <path id="Path_71444" data-name="Path 71444" d="M.508,9.888h278.05V22.476a12.587,12.587,0,0,1-12.588,12.588H13.1A12.587,12.587,0,0,1,.508,22.476Z" transform="translate(-0.508 64.774)" fill="none" stroke="#b22382" stroke-linecap="round" stroke-linejoin="round" stroke-width="6"/>
      <path id="Path_71445" data-name="Path 71445" d="M6.1,31.445H272.964a5.6,5.6,0,0,1,5.594,5.594V51.026a5.6,5.6,0,0,1-5.594,5.594H6.1A5.6,5.6,0,0,1,.508,51.026V37.039A5.6,5.6,0,0,1,6.1,31.445Z" transform="translate(-0.508 221.3)" fill="none" stroke="#b22382" stroke-linecap="round" stroke-linejoin="round" stroke-width="6"/>
      <path id="Path_71446" data-name="Path 71446" d="M99.791,60.763A43.883,43.883,0,1,1,55.908,16.88,43.882,43.882,0,0,1,99.791,60.763Z" transform="translate(83.124 115.544)" fill="none" stroke="#5d235e" stroke-linecap="round" stroke-linejoin="round" stroke-width="1.5"/>
      <path id="Path_71447" data-name="Path 71447" d="M91.263,52.212H23.988L40.772,28.588H74.48Z" transform="translate(169.989 200.554)" fill="none" stroke="#b22382" stroke-linecap="round" stroke-linejoin="round" stroke-width="6"/>
      <path id="Path_71448" data-name="Path 71448" d="M91.263,12.937H23.988L40.772,36.562H74.48Z" transform="translate(169.989 86.913)" fill="none" stroke="#b22382" stroke-linecap="round" stroke-linejoin="round" stroke-width="6"/>
      <path id="Path_71449" data-name="Path 71449" d="M26.021,68.031V15.8H59.73V121.449H26.021V87.612" transform="translate(184.752 107.679)" fill="none" stroke="#b22382" stroke-linecap="round" stroke-linejoin="round" stroke-width="6"/>
      <path id="Path_71450" data-name="Path 71450" d="M69.814,52.212H2.539L19.323,28.588H53.031Z" transform="translate(14.241 200.554)" fill="none" stroke="#b22382" stroke-linecap="round" stroke-linejoin="round" stroke-width="6"/>
      <path id="Path_71451" data-name="Path 71451" d="M69.814,12.937H2.539L19.323,36.562H53.031Z" transform="translate(14.241 86.913)" fill="none" stroke="#b22382" stroke-linecap="round" stroke-linejoin="round" stroke-width="6"/>
      <path id="Path_71452" data-name="Path 71452" d="M38.278,121.449H4.57V15.8H38.278Z" transform="translate(28.991 107.679)" fill="none" stroke="#b22382" stroke-linecap="round" stroke-linejoin="round" stroke-width="6"/>
    </g>
    <path id="Path_71453" data-name="Path 71453" d="M50.063,25.821V19.475H15.236v6.346H26.318a9.479,9.479,0,0,1,8.912,6.346H15.236v6.346H35.23a9.483,9.483,0,0,1-8.912,6.347H15.236v7.66L32.922,70.245h8.953l-19-19.039h3.438A15.86,15.86,0,0,0,41.825,38.513h8.238V32.167H41.825A15.682,15.682,0,0,0,38.9,25.821Z" transform="translate(106.946 135.234)" fill="#5d235e"/>
    <path id="Path_71454" data-name="Path 71454" d="M35.653,3.326A20.49,20.49,0,0,0,21.434,8.988a20.8,20.8,0,0,0-1.458,28.544,20.522,20.522,0,0,0,13.568,7.1V29.577a5.887,5.887,0,1,1,4.218,0V44.632a20.522,20.522,0,0,0,13.568-7.1A20.8,20.8,0,0,0,49.872,8.988,20.49,20.49,0,0,0,35.653,3.326Z" transform="translate(105.231 17.977)" fill="#00a9e0"/>
  </g>
</svg>
