<svg xmlns="http://www.w3.org/2000/svg" xmlns:xlink="http://www.w3.org/1999/xlink" width="205.763" height="163.053" viewBox="0 0 205.763 163.053">
  <defs>
    <linearGradient id="linear-gradient" x1="0.521" y1="-0.103" x2="0.5" y2="1" gradientUnits="objectBoundingBox">
      <stop offset="0" stop-color="#673391"/>
      <stop offset="1" stop-color="#b22382"/>
    </linearGradient>
  </defs>
  <g id="wallet_3_" data-name="wallet (3)" transform="translate(2 -42.2)">
    <g id="Group_3" data-name="Group 3" transform="translate(0 44.2)">
      <g id="Group_2" data-name="Group 2">
        <path id="Path_71359" data-name="Path 71359" d="M197.9,97.54a13.97,13.97,0,0,0-9.47-3.865h.58V73.769A29.693,29.693,0,0,0,159.439,44.2H29.569A29.693,29.693,0,0,0,0,73.769v99.915a29.693,29.693,0,0,0,29.569,29.569H159.439a29.693,29.693,0,0,0,29.569-29.569v-20.1h-.58a13.97,13.97,0,0,0,9.47-3.865,13.607,13.607,0,0,0,3.865-9.47V107.009A13.97,13.97,0,0,0,197.9,97.54Zm-19.519,75.951a19.139,19.139,0,0,1-18.939,18.939H29.569a19.139,19.139,0,0,1-18.939-18.939V73.769A19.139,19.139,0,0,1,29.569,54.829H159.439a19.139,19.139,0,0,1,18.939,18.939V93.675H118.468a29.551,29.551,0,0,0-20.679,8.5,29.206,29.206,0,0,0-8.5,20.679v1.353a29.551,29.551,0,0,0,8.5,20.679,29.206,29.206,0,0,0,20.679,8.5h59.911Zm12.755-33.241h0a2.952,2.952,0,0,1-.773,1.933,2.481,2.481,0,0,1-1.933.773h-69.96A18.476,18.476,0,0,1,99.915,124.4V123.05A18.476,18.476,0,0,1,118.468,104.5h69.96a2.952,2.952,0,0,1,1.933.773,2.481,2.481,0,0,1,.773,1.933Z" transform="translate(0 -44.2)" stroke="#fff" stroke-width="4" fill="url(#linear-gradient)"/>
        <path id="Path_71360" data-name="Path 71360" d="M238.9,190.6a8.5,8.5,0,0,0,0,17.007,9.307,9.307,0,0,0,6.184-2.512,8.6,8.6,0,0,0,2.512-6.184,9.308,9.308,0,0,0-2.512-6.184A11.33,11.33,0,0,0,238.9,190.6Z" transform="translate(-119.082 -119.867)" fill="#d9cee1"/>
      </g>
    </g>
  </g>
</svg>
